<?xml version="1.0" encoding="utf-8"?>
<!-- Generator: Adobe Illustrator 16.0.0, SVG Export Plug-In . SVG Version: 6.00 Build 0)  -->
<!DOCTYPE svg PUBLIC "-//W3C//DTD SVG 1.1//EN" "http://www.w3.org/Graphics/SVG/1.1/DTD/svg11.dtd">
<svg version="1.1" id="Layer_1" xmlns="http://www.w3.org/2000/svg" xmlns:xlink="http://www.w3.org/1999/xlink" x="0px" y="0px"
	 width="1200px" height="1200px" viewBox="0 0 1200 1200" enable-background="new 0 0 1200 1200" xml:space="preserve">
<g>
	<g>
		<path fill="#1573BA" d="M912.48,176.738C846.021,95.821,738.016,52.007,599.918,50c-137.931,2.007-245.932,45.821-312.432,126.738
			c-68.77,83.699-91.551,202.205-65.896,342.655c41.415,226.854,360.254,608.967,373.796,625.12l4.618,5.486l4.609-5.486
			c13.551-16.153,332.381-398.267,373.797-625.12C1004.064,378.943,981.283,260.438,912.48,176.738z M600.004,640.85
			c-112.057,0-203.25-91.192-203.25-203.249c0-112.101,91.193-203.251,203.25-203.251c112.058,0,203.25,91.15,203.25,203.251
			C803.254,549.657,712.063,640.85,600.004,640.85z"/>
		<path fill="#FFFFFF" d="M803.254,437.601c0,112.057-91.191,203.249-203.25,203.249c-112.057,0-203.25-91.192-203.25-203.249
			c0-112.101,91.193-203.251,203.25-203.251C712.063,234.35,803.254,325.5,803.254,437.601z"/>
	</g>
	<path opacity="0.2" fill="#231F20" d="M912.48,176.738C846.057,95.864,738.125,52.058,600.131,50.008v1099.839l4.482-5.333
		c13.551-16.153,332.381-398.267,373.797-625.12C1004.064,378.943,981.283,260.438,912.48,176.738z"/>
</g>
</svg>
